<svg id="logo_full" class="w-[130px] h-auto" data-name="logo_full" xmlns="http://www.w3.org/2000/svg"
            viewBox="0 110 225.779 152">
            <path
              d="M113.029,255.209h-1.179l-.899-.301-10.896-8.196-.545-1.583c.618-2.301,1.189-4.446,1.71-6.421-.83-.854-1.643-1.77-2.409-2.741-3.655-4.638-5.267-9.365-4.802-13.936-7.093,4.779-14.99.912-15.085.865l-.683-1.966c1.095-2.36,2.951-5.409,6.896-6.906-1.916-.989-3.779-2.449-5.376-4.612-9.204-12.464,1.855-25.207,1.968-25.334l2.5,1.569c-.148.358-3.581,8.909,2.74,14.732,2.348,2.163,6.437,3.26,12.152,3.26,1.921,0,8.258.006,14.234.012,5.334.005,10.383.01,11.75.01,6.221,0,10.409-1.073,12.806-3.281,6.32-5.823,2.889-14.374,2.739-14.735l2.5-1.566c.113.127,11.172,12.87,1.969,25.334-1.598,2.163-3.46,3.623-5.376,4.612,3.944,1.497,5.8,4.546,6.896,6.906l-.683,1.966c-.096.048-7.994,3.914-15.086-.865.465,4.571-1.147,9.298-4.802,13.936-.766.972-1.579,1.887-2.408,2.74.521,1.975,1.092,4.121,1.71,6.422l-.545,1.583-10.896,8.196-.899.301ZM112.35,252.217h.179l9.69-7.288c-.362-1.349-.707-2.643-1.033-3.875-3.53,3.095-6.776,4.986-7.282,5.273l-.74.196h-1.449l-.739-.196c-.506-.287-3.753-2.178-7.282-5.273-.327,1.233-.672,2.526-1.033,3.875l9.689,7.288ZM112.119,243.531h.641c1.105-.657,4.338-2.687,7.566-5.734-2.163-8.236-3.357-13.089-3.372-13.151l.501-1.511,8.481-6.986-2.828-9.496c-2.282-.002-5.946-.006-9.756-.009-4.249-.005-8.678-.009-11.575-.011l-2.835,9.516,8.482,6.986.501,1.511c-.015.062-1.209,4.916-3.373,13.152,3.228,3.049,6.461,5.077,7.566,5.733ZM97.772,219.062c-1.84,4.804-.706,9.859,3.388,15.054.312.396.633.783.961,1.159,1.363-5.217,2.275-8.838,2.672-10.431l-7.021-5.782ZM120.084,224.844c.397,1.593,1.311,5.214,2.673,10.43.327-.376.648-.762.961-1.158,4.093-5.194,5.228-10.25,3.387-15.054l-7.021,5.782ZM81.684,220.779c2.677.864,8.612,1.896,13.324-3.664-1.284-.589-3.469-1.259-6.322-.895-3.812.482-5.755,2.428-7.002,4.559ZM129.87,217.115c4.712,5.561,10.644,4.53,13.324,3.663-1.247-2.131-3.19-4.075-7.003-4.558-2.849-.364-5.034.306-6.321.895ZM128.151,213.108c.486.012.734.034.945.054.301.027.502.046,1.992-.042,5.477-.325,9.061-2.017,11.623-5.485,4.054-5.49,3.482-11.016,1.959-15.103-.198,3.236-1.351,6.93-4.733,10.047-2.813,2.593-7.306,3.926-13.712,4.062l1.926,6.467ZM80.207,192.533c-1.524,4.086-2.095,9.611,1.959,15.102,2.562,3.469,6.146,5.16,11.623,5.485,1.49.088,1.689.069,1.992.042.211-.02.459-.042.946-.054l1.93-6.479c-6.337-.061-10.827-1.387-13.717-4.05-3.383-3.116-4.535-6.811-4.733-10.046Z"
              fill="#c7a46a" />
            <g id="flourishes" fill="#f4f1ea" opacity="0.4">
              <path
                d="M159.118,227.303c-1.821-1.311-4.554-2.465-4.676-2.516l-.463,1.104c.025.011,2.193.927,3.874,2.001-.582.251-1.165.479-1.754.709-3.308-2.533-7.383-2.477-7.56-2.481l.022,1.197c.045-.002,3.347-.034,6.203,1.809-.575.232-1.155.479-1.741.761-6.293-2.627-10.303.079-10.474.197l.682.983c.141-.096,3.283-2.18,8.386-.436-.558.327-1.12.698-1.687,1.129-.133.102-.262.203-.388.307-4.526-1.389-7.358,2.345-7.387,2.384l.962.712c.09-.121,2.082-2.719,5.368-2.124-6.578,6.812-.417,16.956-.351,17.064l1.018-.631c-.269-.434-6.478-10.686,1.502-16.759,1.91-1.454,3.74-2.166,5.678-2.919,3.415-1.328,6.947-2.702,10.868-8.278l-.979-.688c-2.528,3.596-4.824,5.321-7.105,6.475Z"
                fill="#c2c3c5" />
              <path
                d="M129.162,185.941c.029,0,.059.002.088.002,1.272,0,2.331-1.012,2.378-2.294.023-.636-.202-1.242-.635-1.708s-1.021-.735-1.657-.759c-1.295-.038-2.418.979-2.466,2.291-.024.636.201,1.243.634,1.709.434.466,1.021.735,1.658.759ZM128.443,182.694c.221-.205.505-.317.805-.317.015,0,.029,0,.045,0,.652.024,1.163.575,1.14,1.229-.023.638-.55,1.141-1.183,1.141-.015,0-.029,0-.045,0-.316-.012-.608-.146-.824-.378-.215-.231-.327-.533-.315-.85s.146-.609.378-.824Z"
                fill="#c2c3c5" />
              <path
                d="M196.546,180.255l.977.69c.055-.074,1.354-1.831,3.738-.784l.48-1.096c-2.632-1.159-4.551.271-5.195,1.189Z"
                fill="#c2c3c5" />
              <path
                d="M131.468,134.439c2.604-2.418,1.612-6.03,1.568-6.183l-1.151.327c.009.03.828,3.067-1.231,4.98l.814.877Z"
                fill="#c2c3c5" />
              <path
                d="M123.072,155.995l1.189-.123c-.564-5.447-8.149-8.001-8.473-8.107l-.374,1.137c.072.023,7.172,2.419,7.657,7.094Z"
                fill="#c2c3c5" />
              <path
                d="M112.438,192.9c-1.313,0-2.381,1.068-2.381,2.381s1.068,2.382,2.381,2.382,2.382-1.068,2.382-2.382-1.069-2.381-2.382-2.381ZM112.438,196.466c-.653,0-1.185-.531-1.185-1.185s.531-1.184,1.185-1.184,1.185.531,1.185,1.184-.532,1.185-1.185,1.185Z"
                fill="#c2c3c5" />
              <path
                d="M118.018,195.204c0,1.313,1.068,2.382,2.382,2.382s2.381-1.068,2.381-2.382-1.068-2.381-2.381-2.381-2.382,1.068-2.382,2.381ZM121.583,195.204c0,.653-.531,1.185-1.184,1.185s-1.185-.531-1.185-1.185.531-1.184,1.185-1.184,1.184.531,1.184,1.184Z"
                fill="#c2c3c5" />
              <path
                d="M168.185,250.438l1.193-.084c-.323-4.614-4.688-5.643-4.731-5.652l-.262,1.168c.035.008,3.538.834,3.8,4.568Z"
                fill="#c2c3c5" />
              <path
                d="M179.867,194.476c.113-.189,2.742-4.746,1.104-14.142l-1.18.205c1.556,8.912-.928,13.283-.953,13.326l1.029.61Z"
                fill="#c2c3c5" />
              <path
                d="M126.867,193.484c1.313,0,2.382-1.068,2.382-2.382s-1.068-2.382-2.382-2.382-2.381,1.068-2.381,2.382,1.068,2.382,2.381,2.382ZM126.867,189.918c.653,0,1.185.531,1.185,1.185s-.531,1.185-1.185,1.185-1.184-.531-1.184-1.185.531-1.185,1.184-1.185Z"
                fill="#c2c3c5" />
              <path
                d="M144.671,192.532c-.001.024-.006.048-.007.072.009,0,.025.002.033.002-.009-.024-.017-.05-.026-.074Z"
                fill="#c2c3c5" />
              <path
                d="M60.19,245.869l-.263-1.167c-.044.01-4.409,1.038-4.732,5.652l1.193.084c.26-3.711,3.657-4.535,3.802-4.569Z"
                fill="#c2c3c5" />
              <path
                d="M80.207,192.533c-.006.016-.011.034-.017.05.008,0,.014-.001.022-.002-.001-.016-.004-.032-.005-.048Z"
                fill="#c2c3c5" />
              <path
                d="M206.078,180.188c-2.675-4.687-7.276-4.427-9.549-3.163-1.268.704-2.173,1.838-2.548,3.191-.371,1.337-.194,2.757.497,4,.686,1.233,1.812,2.127,3.17,2.515,1.358.39,2.786.224,4.021-.464.123-.068.243-.141.359-.218-.513,1.135-1.366,2.339-2.767,2.846-3.243,1.177-5.995-.506-8.401-5.136-.214-.413-.41-.93-.617-1.479-.537-1.419-1.227-3.239-2.812-4.672,2.783-.325,4.829-2.102,4.932-2.192l-.315-1.041c-2.653-.357-3.689-2.322-4.415-4.391-.436-1.247-1.167-2.09-1.795-2.624-.092-.087-.188-.171-.29-.252,1.792-1.499,1.675-3.875,1.303-5.049l-.82-.362c-2.828,1.3-5.098-.585-6.104-1.679,12.511-3.632,10.163-16.414,10.137-16.546l-.503-.478c-4.026-.566-6.859,1.715-8.086,2.973-1.094-2.318-3.803-5.555-8.466-5.555-5.4,0-7.413,4.177-7.413,6.809,0,2.965,2.323,5.288,5.289,5.288,2.916,0,5.288-2.372,5.288-5.288,0-.141-.006-.281-.017-.42.743.999,1.38,2.33,1.143,3.8-.574,3.559-3.604,5.276-8.535,4.85-1.739-.152-3.079-.577-4.63-1.07-1.716-.544-3.612-1.146-6.374-1.447,1.489-.809,2.797-1.831,3.919-3.066,3.54-3.9,4.38-9.153,4.023-12.466-.363-3.378.292-4.672.715-5.143.332-.37.696-.447.942-.447.562,0,.771.21.877.368.547.808.051,2.859-.391,3.963l.748.789c3.024-1.025,4.849-3.132,5.005-5.779.147-2.513-1.282-4.93-3.56-6.016-3.032-1.446-5.352-.329-6.342.338-.424-1.399-1.305-2.585-1.983-3.5-.255-.343-.487-.654-.658-.931-.211-.341-.27-.649-.179-.941.193-.624,1.016-1.104,1.316-1.237l-.151-1.14c-3.433-.509-5.148,1.269-5.957,2.648-.822-1.536-2.354-2.677-4.587-3.413-1.974-.65-2.284-2.954-2.297-3.052l-.879-.453c-1.214.658-1.975,1.567-2.261,2.7-.255,1.008-.08,2.009.177,2.784-1.257-.284-2.319.098-3.653.578-.353.127-.73.264-1.145.399-2.087.682-4.267-1.478-4.288-1.5l-.982.202c-.043.11-1.041,2.712.225,4.87.682,1.162,1.866,1.949,3.529,2.347-.545.832-1.205,2.213-.95,3.771.271,1.66,1.496,3.074,3.641,4.203l.872-.6c-.02-.172-.443-4.215,3.428-4.829,1.713-.272,3.417.316,4.667,1.615,1.472,1.53,2.111,3.791,1.801,6.287-.305-.158-.611-.293-.904-.423-.473-.21-.919-.407-1.306-.665-1.536-1.027-1.237-3.608-1.234-3.634l-.766-.647c-.1.03-2.436.752-3.239,2.8-.423,1.077-.34,2.288.244,3.609-.867.092-2.108.403-3.008,1.382-1.001,1.091-1.314,2.7-.933,4.785l1.012.316c.103-.103,2.574-2.494,4.995-.249,1.051.975,1.341,2.442.758,3.831-.535,1.274-1.946,2.603-4.306,2.484-.876-.042-1.995-.397-3.292-.81-3.905-1.238-9.767-3.1-16.377,1.803-2.559-3.522-6.524-5.96-11.065-6.48,1.327-.668,2.24-2.044,2.24-3.629,0-.662-.324-1.435-.779-2.194.623-6.428,5.579-8.316,5.791-8.394l.165-1.034c-.801-.627-1.604-1.031-2.398-1.21.776-1.975,2.109-2.778,2.882-3.089,1.064-.428,2.229-.405,3.037.062.871.502,1.325,1.454,1.13,2.368-.145.679-.566,1.188-1.156,1.396-.572.202-1.19.094-1.658-.285l-.959.604c.331,1.377,1.016,2.39,2.036,3.009.649.394,1.343.569,1.957.632-.43.243-.881.38-1.352.408-1.777.089-3.301-1.325-3.316-1.339l-1.011.434c0,3.719,3.025,6.744,6.744,6.744,4.675,0,8.479-3.804,8.479-8.479,0-5.707-4.48-10.206-10.652-10.698-3.412-.272-6.666.853-9.174,3.168-1.808,1.669-3.12,3.829-3.826,6.221-.707-2.392-2.019-4.552-3.826-6.221-2.508-2.315-5.767-3.444-9.173-3.168-6.173.492-10.653,4.992-10.653,10.698,0,4.675,3.803,8.479,8.478,8.479,3.719,0,6.745-3.025,6.745-6.744l-1.01-.434c-.016.015-1.55,1.419-3.317,1.339-.47-.028-.922-.165-1.351-.409.613-.062,1.307-.237,1.957-.631,1.02-.619,1.705-1.631,2.036-3.009l-.958-.604c-.469.38-1.089.487-1.659.285-.59-.209-1.012-.718-1.157-1.397-.195-.914.259-1.866,1.13-2.368.809-.467,1.972-.491,3.037-.062.779.314,2.128,1.127,2.902,3.138-.73.198-1.466.586-2.201,1.161l.164,1.034c.209.077,5.017,1.908,5.759,8.099-.549.852-.962,1.741-.962,2.489,0,1.585.912,2.961,2.239,3.629-4.479.513-8.4,2.893-10.961,6.341-6.536-4.729-12.321-2.891-16.187-1.662-1.296.411-2.416.767-3.292.809-2.355.127-3.771-1.21-4.306-2.484-.583-1.389-.293-2.856.757-3.831,2.423-2.246,4.892.146,4.996.249l1.011-.315c.383-2.086.069-3.696-.932-4.786-.899-.979-2.139-1.29-3.007-1.382.584-1.321.667-2.532.244-3.609-.804-2.047-3.14-2.77-3.239-2.8l-.766.648c.003.026.312,2.599-1.235,3.633-.386.258-.833.455-1.305.665-.293.13-.6.265-.904.424-.311-2.497.329-4.757,1.8-6.288,1.249-1.298,2.948-1.886,4.668-1.615,3.871.613,3.447,4.657,3.427,4.829l.873.6c2.145-1.129,3.369-2.542,3.64-4.203.254-1.558-.405-2.939-.951-3.771,1.663-.398,2.848-1.185,3.53-2.348,1.266-2.157.268-4.76.225-4.87l-.982-.202c-.022.022-2.196,2.184-4.288,1.5-.414-.135-.792-.271-1.145-.398-1.333-.481-2.396-.865-3.654-.579.256-.775.432-1.776.177-2.784-.287-1.134-1.048-2.042-2.262-2.701l-.879.453c-.012.098-.323,2.401-2.296,3.052-2.233.736-3.764,1.878-4.586,3.414-.81-1.379-2.536-3.156-5.958-2.648l-.15,1.141c.279.121,1.118.608,1.314,1.234.092.293.034.602-.177.943-.171.276-.403.586-.658.93-.679.914-1.561,2.101-1.985,3.501-.99-.668-3.309-1.785-6.341-.339-2.277,1.085-3.708,3.503-3.56,6.016.156,2.647,1.98,4.753,5.003,5.779l.748-.789c-.441-1.104-.938-3.155-.391-3.963.107-.158.314-.368.877-.368.247,0,.61.078.942.447.423.471,1.078,1.765.715,5.143-.356,3.313.484,8.566,4.025,12.467,1.121,1.234,2.428,2.257,3.917,3.065-2.761.301-4.658.903-6.373,1.447-1.551.493-2.891.918-4.63,1.07-4.929.43-7.961-1.292-8.535-4.85-.236-1.462.4-2.792,1.142-3.792-.011.137-.016.274-.016.412,0,2.916,2.372,5.288,5.288,5.288,2.965,0,5.288-2.323,5.288-5.288,0-2.632-2.012-6.808-7.412-6.809-4.663,0-7.372,3.236-8.466,5.555-1.228-1.258-4.068-3.539-8.084-2.973l-.503.478c-.026.132-2.377,12.915,10.137,16.546-1.007,1.094-3.279,2.981-6.104,1.679l-.821.362c-.372,1.174-.489,3.55,1.303,5.049-.101.081-.196.164-.287.25-.629.534-1.361,1.378-1.798,2.626-.724,2.068-1.759,4.033-4.414,4.391l-.316,1.041c.103.091,2.149,1.867,4.932,2.192-1.584,1.432-2.274,3.253-2.811,4.672-.208.548-.404,1.065-.618,1.478-2.408,4.632-5.156,6.312-8.402,5.137-1.393-.505-2.246-1.708-2.76-2.843.115.076.232.147.354.215,2.548,1.42,5.773.498,7.191-2.051.691-1.243.867-2.664.497-4-.376-1.354-1.281-2.487-2.549-3.191-2.272-1.266-6.874-1.523-9.548,3.163-1.048,1.835-1.514,5.584-.314,8.919,1.034,2.873,3.145,4.983,6.104,6.102.634.239,1.271.404,1.913.495-2.277,1.866-4.131,5.07-3.647,9.484l1.054.317c.052-.061,1.307-1.508,3.893-1.335.87.059,1.364.366,1.937.723,1.136.708,2.412,1.506,6.367.595-.05,1.323.246,3.799,2.73,5.769.041,4.484,4.267,11.999,11.398,14.574,5.452,1.969,5.61,5.043,5.61,5.387,0,1.784-1.089,2.448-1.775,2.448-.903,0-1.314-.531-1.314-1.025,0-.747.666-.845.865-.856l.378-1.041c-2-1.812-5.101-1.656-6.91.342-1.095,1.208-1.654,2.771-1.573,4.398.081,1.629.79,3.128,1.999,4.223.765.694,1.645,1.217,2.614,1.555.728.255,1.504.396,2.311.419,3.067.099,5.727-1.267,7.118-3.618.042-.072.084-.146.124-.221.831,2.558,3.049,3.395,3.079,3.405l.659-.174c2.537-2.974,1.489-5.3.796-6.838l-.095-.212c-.296-.668-.37-1.262-.199-1.591.072-.139.189-.222.357-.254.148-.035.728.059,1.259.607.508.523,1.026,1.54.606,3.402-1.199,5.32,1.037,7.022,1.132,7.092l.449.107c1.094-.178,1.98-.935,2.685-1.906-.027,1.376.089,3.047.521,4.913.674,2.916-.062,6.323-1.875,8.681-.95,1.235-2.622,2.725-5.19,2.807-2.804.08-4.575-1.034-4.852-3.086-.129-.952.384-1.877,1.222-2.198.538-.204,1.072-.152,1.51.147.419.287.669.762.67,1.268l.421.59.689-.202c1.552-1.946,1.129-3.688.471-4.833.35.169.649.395.896.678,1.001,1.148.89,2.933.875,3.123l.323.605.679-.057c2.706-2.096,3.223-6.02,1.152-8.748-2.558-3.368-7.287-4.024-10.999-1.527-4.924,3.312-4.683,9.624-1.957,13.88,1.674,2.615,4.268,4.324,7.304,4.814,3.221.523,6.597-.349,9.031-2.321,1.576-1.278,2.848-3.482,3.637-5.104l.516,4.094.777.494c2.136-.686,3.692-1.957,4.625-3.776.87-1.695,1.063-3.603.998-5.233,1.515,1.569,3.43,2.309,3.556,2.355l.692-.204c3.278-4.445,1.815-9.477.215-12.677,4.899,3.235,9.687,2.491,9.927,2.449l.317-1.02c-2.691-2.605-3.098-4.374-3.492-6.085-.39-1.696-.759-3.298-3.216-5.205-1.552-1.203-3.385-1.946-5.325-2.733-3.09-1.252-6.285-2.548-8.731-5.876-3.222-4.385-5.945-5.223-7.342-5.314.248-.56.642-1.088,1.23-1.545,1.024-.798,3.039-1.624,5.349-1.318,2.192.287,4.255,1.494,6.155,3.571.267-.285.553-.562.862-.83-2.089-2.277-4.389-3.604-6.861-3.927-.905-.116-1.768-.091-2.562.037-.649-1.517-1.586-2.691-2.665-3.6,2.827-.711,6.052-1.979,6.208-2.041l-.439-1.113c-.042.017-4.155,1.635-7.062,2.224-.848-.521-1.742-.918-2.624-1.218,4.79-.756,8.984-2.37,9.235-2.468l-.434-1.115c-.071.027-5.84,2.247-11.465,2.692,1.016-.508,1.973-1.155,2.854-1.923,2.665-.517,7.656-2.273,8.154-2.462l-.425-1.119c-.37.141-3.567,1.265-6.14,1.969,1.593-1.877,2.815-4.214,3.507-6.854,2.516-9.595-5.442-14.985-5.523-15.038l-.661.998c.3.199,7.321,4.984,5.026,13.737-1.509,5.753-5.693,9.945-10.659,10.681l.077.691-.052.495c.86.092,1.75.116,2.648.091,2.854.309,7.339,1.476,9.25,5.646-1.022.312-1.877.773-2.489,1.249-2.808,2.184-2.195,5.743-1.179,8.036-4.811-1.027-7.809-2.32-8.674-8.158-.445-3.005-1.852-5.405-3.762-6.42-1.03-.548-2.124-.62-3-.197-.442.212-.743.583-.87,1.074-.379,1.466.96,3.972,1.886,5.467-3.873-.879-6.264-2.964-7.676-4.792-.007-.013-.013-.026-.02-.039l-.008.004c-1.266-1.65-1.734-3.081-1.774-3.21l-.816-.368c-2.212.991-1.545,4.67-1.014,6.606-5.716-2.242-4.713-6.649-4.665-6.844l-.734-.726c-4.123,1.096-5.213.414-6.27-.243-.619-.387-1.321-.823-2.49-.901-1.808-.123-3.103.422-3.906.937-.041-4.14,2.277-6.914,4.609-8.177,2.199-.235,4.469-1.318,6.856-3.262l-.755-.928c-3.549,2.888-6.623,3.695-9.674,2.542-2.517-.951-4.279-2.625-5.245-4.98h.002c-.256-.747-.744-2.909.066-3.932.272-.343.695-.545,1.262-.604.342,1.485,1.355,4.449,4.11,5.447,3.853,1.394,7.176-.525,9.871-5.71.247-.475.455-1.024.675-1.605.694-1.835,1.481-3.911,3.879-5.169.124-.024.246-.051.368-.081-3.044,4.692-3.578,10.854-1.323,16.605,2.266,5.781,6.749,9.561,11.992,10.108,5.207.55,9.966-.905,13.06-3.98,2.116-2.104,3.238-4.796,3-7.202-.322-3.264-1.876-4.875-3.123-5.652-1.469-.914-3.033-.987-3.933-.65-.498.186-.838.43-1.071.688.015-.375.116-.735.302-1.081,1.17-2.183,4.635-.934,4.67-.921l.715-.878c-1.493-2.391-1.873-5.706-.904-7.882.635-1.425,1.769-2.29,3.371-2.572.173-.03.342-.055.506-.073-.283.307-.489.695-.6,1.152-.318,1.312.224,3.138,1.875,4.087,3.29,1.894,4.916,3.919,4.953,6.178-.019.294-.017.484-.016.523l1.195.035c.013-.169.019-.335.019-.499.082-1.145.544-4.17,3.146-4.883,1.241-.344,2.119.584,2.579,1.272-.898.275-1.956.937-2.302,2.28-.418,1.62.557,2.726,1.34,3.614.02.023.038.044.058.066.219-.389.434-.751.643-1.085-.707-.818-1.108-1.419-.882-2.296.373-1.445,2.025-1.542,2.092-1.546l.527-.832c-.439-1.034-1.684-2.745-3.525-2.745-.27,0-.552.037-.846.117-1.938.531-2.948,1.966-3.475,3.353-1.223-2.469-3.851-3.981-4.909-4.59-1.129-.649-1.517-1.91-1.309-2.769.107-.441.413-.976,1.262-1.015,2.351-.121,2.924,3.352,2.93,3.387l1.03.309c.132-.143,2.68-2.955,2.225-6.174,3.157-1.185,4.838-2.771,6.612-4.448,1.208-1.141,2.457-2.321,4.264-3.424,3.605-2.202,8.735-2.164,10.473-2.077.444,4.212,2.476,8.572,6.059,13.002l-5.125,1.365c-3.764-2.146-1.786-9.667-1.765-9.745l-.623-.753c-2.937.224-5.042,1.229-6.259,2.985-1.196,1.727-1.231,3.754-1.09,5.032-3.82-1.526-7.281,1.633-8.678,3.708l.624.919c3.367-.739,6.34,2.118,6.833,4.327.568,2.542.277,4.574-.865,6.039-.619.794-1.426,1.341-2.237,1.722-.024.423-.03.863-.016,1.315,1.117-.444,2.299-1.152,3.192-2.294,1.377-1.762,1.746-4.132,1.095-7.043-.536-2.401-3.312-5.314-6.773-5.383,1.358-1.479,4.16-3.743,7.307-1.717l.899-.669c-.009-.03-.852-3.055.698-5.282.892-1.283,2.419-2.082,4.545-2.38-.411,2.021-1.109,7.118,1.628,9.613l-7.465,1.988-.357.89c2.591,4.249,2.839,6.753,3.059,8.962.087.884.17,1.72.393,2.581-1.355.659-3.907,1.812-5.538,1.755l-.587.812c.041.104.945,2.372,4.009,3.645-.619.488-1.826,1.12-3.959,1.161.273.385.58.763.919,1.133,3.44-.351,4.562-2.152,4.615-2.242l-.338-.878c-2.046-.63-3.15-1.748-3.689-2.495,1.698-.244,3.692-1.139,4.95-1.746.413,1.001,1.078,2.074,2.192,3.32.532.594,1.09,1.117,1.664,1.578-1.441.747-4.147,2.405-5.758,4.978.366.153.753.293,1.157.422,1.72-2.566,4.714-4.139,5.698-4.606,3.217,2.102,6.701,2.476,8.771,2.476,1.69,0,12.053.067,12.097.067,2.918-.071,6.839-.452,10.209-2.562.948.445,4.043,2.052,5.779,4.694.407-.122.801-.251,1.17-.395-1.609-2.637-4.375-4.332-5.829-5.084.587-.458,1.149-.979,1.678-1.569,1.115-1.246,1.78-2.319,2.193-3.32,1.257.607,3.25,1.502,4.949,1.746-.54.747-1.644,1.866-3.688,2.495l-.339.878c.056.092,1.241,1.993,4.893,2.271.352-.381.668-.771.95-1.168-2.327.017-3.622-.647-4.267-1.155,3.063-1.272,3.969-3.541,4.009-3.646l-.587-.812c-1.603.063-4.183-1.096-5.538-1.755.223-.861.306-1.698.393-2.581.22-2.209.468-4.713,3.059-8.962l-.356-.89-7.465-1.988c2.737-2.495,2.039-7.593,1.629-9.613,2.125.298,3.652,1.097,4.545,2.38,1.549,2.228.706,5.252.697,5.282l.899.669c3.145-2.029,5.947.237,7.306,1.717-3.46.069-6.236,2.981-6.772,5.382-.65,2.912-.282,5.281,1.095,7.044.974,1.245,2.293,1.977,3.494,2.41.017-.444.013-.876-.007-1.294-.909-.381-1.844-.959-2.544-1.854-1.146-1.466-1.439-3.5-.87-6.046.438-1.967,2.848-4.444,5.746-4.444.355,0,.72.037,1.087.118l.624-.919c-1.396-2.075-4.855-5.234-8.677-3.708.142-1.278.105-3.306-1.09-5.032-1.218-1.757-3.323-2.762-6.259-2.985l-.623.753c.021.078,1.997,7.599-1.766,9.745l-5.02-1.337c3.37-4.229,5.271-8.592,5.673-13.015,1.382-.087,6.925-.276,10.755,2.062,1.805,1.103,3.054,2.282,4.261,3.423,1.774,1.677,3.456,3.265,6.613,4.449-.456,3.22,2.093,6.031,2.225,6.174l1.03-.31c.005-.035.578-3.388,2.824-3.388.035,0,.069,0,.104.002.85.039,1.156.573,1.264,1.016.208.857-.18,2.119-1.308,2.768-1.059.608-3.688,2.121-4.91,4.59-.526-1.387-1.537-2.821-3.476-3.353-2.299-.625-3.866,1.442-4.371,2.628l.524.832c.07.004,1.723.101,2.096,1.546.207.802-.112,1.373-.707,2.09.211.331.43.69.653,1.079.757-.864,1.608-1.934,1.212-3.468-.347-1.344-1.405-2.005-2.303-2.28.461-.689,1.338-1.618,2.579-1.272,2.604.713,3.065,3.766,3.147,4.899,0,.158.006.319.019.482l1.195-.036c0-.038.002-.229-.017-.522.036-2.26,1.663-4.284,4.953-6.178,1.651-.949,2.193-2.774,1.875-4.087-.111-.457-.317-.846-.601-1.152.164.019.333.043.506.073,1.603.282,2.737,1.148,3.372,2.573.97,2.176.589,5.49-.904,7.881l.717.878c.035-.013,3.495-1.27,4.669.921.186.346.286.706.302,1.082-.232-.258-.574-.502-1.071-.688-.899-.337-2.464-.265-3.933.65-1.247.777-2.801,2.389-3.123,5.652-.237,2.405.884,5.098,3,7.201,3.095,3.076,7.854,4.532,13.06,3.981,5.242-.548,9.726-4.327,11.991-10.108,2.256-5.752,1.722-11.913-1.323-16.605.122.03.245.057.369.081,2.398,1.258,3.185,3.335,3.879,5.169.22.582.428,1.131.674,1.606,2.697,5.186,6.019,7.104,9.872,5.709,2.756-.998,3.769-3.962,4.11-5.447.566.06.989.262,1.261.604.811,1.022.323,3.185.067,3.932h0c-.965,2.355-2.728,4.029-5.245,4.98-3.046,1.152-6.123.347-9.673-2.542l-.756.928c2.389,1.943,4.658,3.026,6.857,3.262,2.331,1.263,4.648,4.036,4.609,8.177-.804-.516-2.107-1.06-3.907-.937-1.169.078-1.87.515-2.489.901-1.056.658-2.147,1.34-6.27.243l-.733.726c.05.196,1.089,4.594-4.665,6.845.53-1.937,1.197-5.616-1.015-6.607l-.816.369c-.021.066-2.047,6.332-9.477,8.034.926-1.495,2.264-3.999,1.885-5.465-.127-.491-.428-.862-.87-1.074-.878-.422-1.97-.35-3.001.197-1.91,1.015-3.316,3.415-3.761,6.42-.866,5.838-3.864,7.131-8.675,8.158,1.016-2.293,1.629-5.853-1.179-8.036-.611-.476-1.467-.938-2.488-1.249,1.911-4.17,6.396-5.337,9.25-5.646.896.024,1.79,0,2.647-.091l-.052-.495.077-.691c-4.967-.735-9.15-4.928-10.658-10.681-2.296-8.753,4.725-13.538,5.024-13.737l-.66-.998c-.08.053-8.038,5.443-5.522,15.038.692,2.64,1.913,4.976,3.507,6.854-2.575-.704-5.77-1.828-6.139-1.969l-.426,1.119c.497.188,5.481,1.943,8.153,2.462.881.768,1.838,1.415,2.854,1.923-5.625-.446-11.395-2.665-11.465-2.692l-.434,1.115c.251.098,4.445,1.712,9.235,2.468-.882.301-1.775.696-2.623,1.218-2.907-.589-7.021-2.207-7.062-2.224l-.439,1.113c.156.062,3.381,1.33,6.208,2.041-1.078.908-2.016,2.083-2.665,3.6-.794-.128-1.657-.153-2.563-.037-2.419.317-4.674,1.599-6.727,3.788.314.262.607.532.879.812,1.858-1.978,3.87-3.134,6.004-3.413,2.31-.306,4.326.521,5.351,1.318.588.457.981.985,1.23,1.545-1.397.092-4.12.931-7.343,5.314-2.445,3.328-5.64,4.623-8.729,5.876-1.94.787-3.773,1.529-5.325,2.733-2.458,1.907-2.827,3.509-3.217,5.205-.395,1.711-.802,3.479-3.492,6.085l.317,1.02c.238.042,5.029.785,9.927-2.449-1.6,3.2-3.062,8.232.216,12.677l.692.204c.126-.047,2.041-.786,3.555-2.355-.064,1.631.129,3.537.998,5.232.934,1.82,2.49,3.092,4.627,3.777l.776-.494.516-4.093c.789,1.62,2.062,3.824,3.638,5.103,1.97,1.597,4.555,2.469,7.176,2.469.619,0,1.24-.049,1.855-.147,3.035-.49,5.629-2.2,7.303-4.813,2.727-4.256,2.968-10.567-1.956-13.881-3.711-2.499-8.44-1.841-10.999,1.528-2.07,2.728-1.553,6.651,1.126,8.725l.692.085.337-.603c-.017-.199-.127-1.983.874-3.132.246-.282.545-.508.896-.677-.657,1.144-1.08,2.888.472,4.833l.693.199.417-.588c0-.506.25-.979.669-1.268.438-.3.974-.352,1.509-.147.839.322,1.354,1.247,1.224,2.199-.277,2.05-2.046,3.164-4.853,3.085-2.569-.082-4.24-1.572-5.19-2.807-1.814-2.357-2.551-5.765-1.876-8.681.432-1.867.548-3.538.521-4.914.705.972,1.592,1.729,2.687,1.907l.448-.107c.096-.07,2.33-1.771,1.132-7.092-.42-1.862.098-2.878.606-3.402.531-.548,1.105-.645,1.259-.607.168.032.284.115.357.254.171.329.097.923-.199,1.59l-.095.213c-.693,1.538-1.741,3.864.797,6.838l.658.174c.03-.011,2.248-.848,3.079-3.405.04.075.081.148.124.221,1.392,2.351,4.044,3.714,7.118,3.618.804-.023,1.581-.164,2.311-.419.968-.337,1.847-.86,2.612-1.555,2.495-2.259,2.687-6.126.427-8.621-1.811-1.999-4.912-2.153-6.911-.342l.372,1.041c.204.012.87.109.87.856,0,.494-.411,1.025-1.313,1.025-.687,0-1.774-.664-1.774-2.448,0-.344.157-3.418,5.609-5.387,7.13-2.574,11.357-10.089,11.397-14.574,2.485-1.97,2.781-4.445,2.731-5.769,3.952.91,5.23.114,6.366-.595.572-.356,1.066-.664,1.937-.723,2.573-.174,3.842,1.273,3.892,1.332l1.057-.314c.482-4.414-1.371-7.618-3.649-9.484.643-.091,1.28-.256,1.914-.495,2.959-1.118,5.07-3.228,6.104-6.101,1.2-3.335.734-7.085-.313-8.92ZM52.167,240.483c-.682-.021-1.338-.14-1.951-.354-.817-.284-1.559-.726-2.205-1.312-.971-.88-1.542-2.085-1.606-3.395-.065-1.309.384-2.565,1.265-3.537.729-.804,1.732-1.213,2.74-1.213.467,0,.935.088,1.375.265-.894.473-1.502,1.396-1.659,2.614-.264,2.053.935,4.604,3.676,5.289,1.471.368,2.688.139,3.66-.383-1.261,1.342-3.155,2.084-5.296,2.024ZM55.666,256.875c-2.42-3.779-2.676-9.354,1.617-12.243,1.304-.877,2.752-1.304,4.156-1.304,2.017,0,3.942.88,5.221,2.562,1.419,1.87,1.336,4.435-.058,6.21-.111-.812-.402-1.824-1.117-2.644-.768-.881-1.858-1.368-3.225-1.446l-.629.381.164.706c.34.298,1.754,1.674,1.102,3.482-.198-.321-.463-.604-.784-.823-.752-.517-1.691-.62-2.583-.29-.359.1-2.453.812-2.909,3.939-.167,1.139-.013,2.219.428,3.19-.488-.483-.956-1.053-1.384-1.722ZM40.218,212.322c3.22,6.003,8.336,9.688,8.554,9.843l.694-.975c-.047-.033-4.346-3.134-7.435-8.121.148.049.299.097.454.144l.636-.67c3.588,4.952,9.561,9.112,11.572,10.435l.105.069.351-.484.5-.328c-.07-.106-.123-.142-.299-.257-2.328-1.53-10.111-6.962-12.892-12.844-.108-.994-.071-1.947.291-2.52.285.626.773,1.554,1.532,2.57l-.006.003c2.506,5.077,9.642,9.94,9.945,10.145l.67-.992c-.049-.032-3.403-2.317-6.27-5.297,1.513.87,3.363,1.562,5.61,1.878l.571-.939c-1.119-1.576-2.783-4.508-2.484-5.661.039-.149.105-.235.229-.295.54-.259,1.221-.195,1.922.176,1.576.837,2.75,2.908,3.14,5.539,1.107,7.475,5.841,8.414,10.853,9.408l.626-.901c-.088-.143-1.547-2.559-1.261-4.882.94.01,3.45.411,6.701,4.835,2.646,3.601,6.152,5.022,9.245,6.276,1.861.755,3.62,1.468,5.041,2.569,2.121,1.646,2.413,2.918,2.784,4.528.365,1.588.773,3.363,2.909,5.729h-.014c-2.144,0-6.667-.549-10.545-4.639l-.896.792c.064.078,6.252,7.742,2.054,14.081-.912-.433-3.054-1.63-3.876-3.654-.154-.755-.307-1.241-.328-1.304l-1.164.25c.057.514.181.992.353,1.436.497,2.503.921,7.838-3.849,9.84l-.694-5.504-1.155-.133c-.017.046-1.751,4.666-4.152,6.613-2.141,1.736-5.242,2.526-8.086,2.069-.229-.037-.468-.083-.716-.143-2.502-1.052-3.821-2.874-3.672-5.045.743,2.062,2.836,3.208,5.832,3.11,2.369-.075,4.535-1.237,6.101-3.272,2.023-2.63,2.845-6.429,2.093-9.68-.861-3.729-.393-6.604-.125-7.747.439-1.22.665-2.249.719-2.514l-1.172-.242c-.339,1.635-1.641,5.836-3.702,6.515-.403-.501-1.314-2.1-.507-5.685.566-2.511-.33-3.896-.914-4.499-.787-.812-1.767-1.061-2.345-.95-.526.103-.949.413-1.191.876-.247.473-.418,1.312.166,2.63l.098.218c.637,1.413,1.354,3.005-.328,5.215-.802-.454-2.568-1.837-2.17-5.064l-.832-.153-.33-.109c-.055.164-1.383,3.991-5.065,3.069-2.093-.523-2.982-2.396-2.779-3.977.011-.087.032-.211.068-.354.298.816,1.113,1.512,2.383,1.512,1.44,0,2.971-1.278,2.971-3.646,0-.701-.309-4.313-6.4-6.512-4.301-1.554-10.078-6.962-10.575-12.627.146.083.299.165.457.244ZM21.772,183.388h-.003c-1.376-.134-2.418.179-3.088.942.076-1.528.437-2.819.854-3.549,2.263-3.965,5.98-3.796,7.928-2.711.985.547,1.688,1.423,1.977,2.466.286,1.031.148,2.132-.389,3.098-1.096,1.972-3.593,2.682-5.563,1.588-.755-.421-1.348-1.055-1.714-1.834ZM163.93,126.677l.068.072c.021-.021,2.266-2.087,5.525-.533,1.843.878,3,2.833,2.88,4.865-.099,1.677-1.062,3.096-2.697,4.045.551-1.341.956-3.08.526-4.627-.325-1.172-1.07-2.052-2.214-2.616-.722-.356-1.427-.497-2.086-.497-.757,0-1.452.186-2.04.448.059-.397.067-.783.037-1.157ZM112.738,133.244c0-3.667,1.472-7.13,4.04-9.5,2.261-2.087,5.206-3.098,8.267-2.855,5.534.442,9.551,4.439,9.551,9.506,0,4.015-3.267,7.281-7.281,7.281-2.619,0-4.819-1.823-5.398-4.268.763.446,1.826.886,3.043.82,1.292-.073,2.449-.713,3.438-1.9l-.602-.964c-.017.004-1.619.379-2.891-.398-.406-.248-.741-.593-1.002-1.03.452.062.92.015,1.368-.143.992-.351,1.694-1.18,1.928-2.275.304-1.424-.38-2.893-1.702-3.655-1.137-.656-2.663-.706-4.082-.135-1.702.686-2.995,2.135-3.675,4.105-.063.005-.128.011-.192.019-1.719.211-2.713,1.462-2.754,1.516l.941.738c.176-.219,1.642-1.923,4.071-.584-1.567.875-4.498,3.077-5.385,7.615-.668-.846-1.346-1.55-1.683-1.887v-2.006ZM104.69,129.522c2.428-1.339,3.895.364,4.07.583l.942-.738c-.042-.053-1.034-1.304-2.752-1.515-.138-.017-.275-.027-.414-.03-.681-1.965-1.973-3.411-3.673-4.095-1.418-.572-2.944-.52-4.081.135-1.322.762-2.006,2.231-1.702,3.654.233,1.095.936,1.925,1.928,2.275.449.16.916.205,1.369.144-.261.437-.596.782-1.002,1.03-1.273.779-2.875.402-2.891.398l-.602.964c.99,1.188,2.147,1.827,3.439,1.9,1.2.071,2.28-.374,3.043-.82-.579,2.443-2.78,4.268-5.399,4.268-4.015,0-7.282-3.267-7.282-7.281,0-5.066,4.017-9.064,9.552-9.506.301-.024.601-.036.899-.036,2.742,0,5.33,1.009,7.368,2.891,2.567,2.37,4.04,5.833,4.04,9.5v2.007c-.308.308-.901.922-1.511,1.671-.935-4.393-3.798-6.539-5.34-7.4ZM109.275,140.759c0-.534.395-1.301.944-2.097l.064-.005c-.002-.026-.004-.052-.006-.077.554-.789,1.253-1.6,1.863-2.232,1.249,1.294,2.864,3.33,2.864,4.411,0,1.579-1.285,2.864-2.864,2.864s-2.865-1.285-2.865-2.864ZM112.14,145.481c6.336,0,11.75,4.024,13.82,9.651-1.987,5.215-11.675,15.173-13.82,17.339-2.146-2.166-11.834-12.123-13.82-17.339,2.07-5.627,7.484-9.651,13.82-9.651ZM116.866,169.265c.955-1.034,1.995-2.188,3.037-3.396v10.146c-.981,1.084-1.985,2.249-2.936,3.383v-10.132h-.102ZM115.97,180.599c-1.347,1.637-2.51,3.11-3.232,4.036v-11.067c.437-.436,1.573-1.58,3.033-3.129v10.16h.199ZM111.542,173.567v10.69c-.709-.904-1.716-2.173-2.861-3.566v-10.07c1.376,1.456,2.441,2.527,2.861,2.946ZM107.484,169.342v9.908c-.953-1.135-1.957-2.296-2.936-3.37v-9.811c1.01,1.164,2.013,2.275,2.936,3.272ZM54.868,135.128c-1.637-.95-2.599-2.369-2.698-4.046-.12-2.032,1.038-3.987,2.88-4.865.897-.428,1.715-.584,2.431-.584,1.862,0,3.03,1.057,3.097,1.118l.066-.07c-.03.373-.021.758.038,1.154-1.101-.489-2.576-.716-4.126.049-1.144.564-1.889,1.444-2.214,2.615-.43,1.547-.025,3.287.526,4.629ZM57.545,185.723c-1.212,2.258.237,4.395,1.473,5.712-2.861-.109-4.763-1.178-5.301-3.024-.488-1.678.325-3.709,1.812-4.528.776-.428,1.59-.585,2.37-.585.983,0,1.912.251,2.636.528-1.127.114-2.291.596-2.989,1.897ZM72.624,176.24c-.252-.786-.731-1.751-1.638-2.478-1.181-.946-2.775-1.252-4.74-.904-1.989.35-3.461,1.479-4.256,3.264-.74,1.66-.828,3.808-.327,5.862-1.803-2.999-2.447-6.021-1.815-8.665.549-2.299,2.007-4.133,4.106-5.164.929-.456,2.137-.732,3.397-.732,2.179,0,4.514.827,5.828,2.985,1.327,2.178.277,4.526-.555,5.832ZM96.874,155.695c-6.058-1.827-10.948-.388-11.16-.322l.347,1.145c.049-.014,4.792-1.4,10.517.339-.106.494-.189.998-.248,1.509-5.249-1.75-9.802-.374-11.115.108l.412,1.123c1.243-.456,5.609-1.775,10.609.002-.008.199-.011.399-.011.601,0,.183.003.366.009.55-1.984-.098-7.18-.08-11.013,2.261-1.913,1.168-3.208,2.393-4.461,3.575-1.659,1.567-3.231,3.053-6.091,4.152-.121-.316-.275-.635-.468-.952-.061-.099-.123-.195-.187-.29,3.604-1.773,4.699-4.073,4.747-4.176l-1.085-.505c-.01.022-1.044,2.134-4.436,3.725-2.565-2.658-6.845-2.915-9.814-1.458-2.425,1.191-4.109,3.308-4.743,5.96-.703,2.945-.016,6.271,1.939,9.534-1.514-.521-3.651-.854-5.67.258-1.983,1.093-3.03,3.689-2.384,5.912.375,1.288,1.908,4.255,7.949,3.862l.365-1.039s-.004,0-.004-.004c-.682-.623-2.025-2.188-1.854-3.074.021-.107.083-.433.764-.687.625-.234,1.812-.12,2.881.545,1.019.635,2.291,1.975,2.565,4.754.131,1.327-.237,2.771-1.018,4.126-6.278.635-10.468-2.991-10.51-3.029l-.792.897c.179.158,4.194,3.626,10.435,3.393-.236.292-.493.576-.768.85-.172.172-.351.337-.535.498-1.359.072-9.516.152-13.362-7.677-1.62-3.297-2.329-9.449,1.002-15.936,3.493-6.799,12.347-15.685,34.697-19.408l-.196-1.18c-22.84,3.805-31.947,12.999-35.565,20.042-3.535,6.881-2.754,13.463-1.012,17.009,3.31,6.736,9.704,8.07,12.863,8.305-2.706,1.666-6.209,2.382-9.983,1.986-4.79-.501-8.903-3.999-11.002-9.355-2.388-6.092-1.452-12.655,2.441-17.153,1.154-.752,2.214-1.859,3.17-3.314l-1-.656c-1.528,2.324-3.312,3.641-5.302,3.91-1.947.268-3.713-.531-4.771-1.17,2.33-.84,3.354-2.891,4.043-4.86.363-1.038.974-1.723,1.478-2.142v.002c.009-.007.016-.015.023-.021.436-.357.785-.514.814-.526l.002-.064c2.496-1.427,7.137-1.604,7.19-1.606l-.041-1.195c-.219.007-4.608.174-7.426,1.6-1.446-.944-1.488-2.5-1.376-3.37,3.448,1.11,6.35-1.431,7.456-3.036l-.353-.922c-11.241-2.71-10.528-12.728-10.222-14.966,4.383-.352,7.166,3.281,7.194,3.319l1.05-.174c.63-1.96,3.051-5.666,7.704-5.666,4.528,0,6.216,3.442,6.216,5.611,0,2.294-1.797,4.091-4.092,4.091-2.256,0-4.092-1.835-4.092-4.091,0-.863.267-1.688.77-2.389l-.834-.836c-.166.119-4.059,2.958-3.44,6.796.678,4.204,4.256,6.339,9.821,5.85,1.871-.163,3.336-.628,4.888-1.121,2.076-.658,4.425-1.404,8.322-1.557,2.39.861,5.15,1.277,8.255,1.244l-.013-1.197c-5.977.112-10.545-1.602-13.584-4.948-3.274-3.606-4.052-8.468-3.722-11.534.315-2.928-.026-4.97-1.014-6.07-.489-.544-1.14-.844-1.833-.844-1.003,0-1.549.449-1.835.847.021-.222.059-.437.116-.642.233-.841.754-1.45,1.59-1.863,2.085-1.03,3.801.319,4.185.66.335.649.818,1.321,1.482,2.012l.862-.83c-3.283-3.412-1.265-6.127.208-8.11.278-.374.529-.713.715-1.015.393-.637.497-1.304.301-1.93-.104-.33-.278-.617-.482-.864,2.553.338,3.382,2.517,3.56,3.099-.214,1.044-.185,2.221.087,3.529l1.172-.244c-.766-3.674.593-5.951,4.276-7.166,1.808-.596,2.582-2.147,2.9-3.147.518.419.853.919,1,1.494.402,1.577-.68,3.276-.69,3.292l.802.844c1.513-.876,2.385-.562,4.122.064.363.131.752.271,1.179.411,1.928.627,3.762-.408,4.753-1.151.149.786.221,1.981-.372,2.986-.616,1.044-1.841,1.698-3.643,1.944l-.353,1.005c.016.017,1.582,1.698,1.27,3.583-.172,1.037-.883,1.977-2.119,2.8-.133-1.926-1.15-4.499-4.451-5.022-2.111-.337-4.194.383-5.718,1.967-1.841,1.915-2.578,4.761-2.039,7.842-.942.808-1.678,2.109-1.678,4.549h1.196c0-3.288,1.377-3.897,2.971-4.604.499-.221,1.014-.449,1.486-.765,1.426-.953,1.742-2.678,1.787-3.775.588.323,1.342.884,1.677,1.744.371.95.163,2.107-.618,3.438l.572.898c.017,0,1.957-.164,3.043,1.024.574.629.828,1.546.759,2.733-1.412-.912-3.675-1.516-5.771.428-1.407,1.305-1.818,3.335-1.047,5.171.692,1.648,2.499,3.373,5.466,3.217,1.032-.049,2.221-.427,3.597-.864,3.854-1.225,9.092-2.889,15.147,1.509-.321.507-.614,1.033-.876,1.576-5.348-2.735-11.605-1.227-11.874-1.161l.289,1.162c.061-.017,6.134-1.48,11.104,1.098-.168.427-.318.861-.449,1.306ZM99.657,160.171v8.522c-1.487-2.903-2.236-5.743-2.236-8.494,0-1.144.131-2.257.379-3.325.528,1.019,1.236,2.137,2.055,3.297h-.198ZM100.854,170.792v-9.255c.785,1.04,1.634,2.096,2.499,3.128v9.596c-.945-1.164-1.778-2.32-2.499-3.469ZM127.405,177.581l.012.027c.012-.005.023-.01.034-.015l7.749,2.064c-2.354,4.082-2.611,6.675-2.82,8.78-.211,2.128-.378,3.809-2.668,6.367-3.459,3.867-8.588,4.431-12.126,4.518,0,0-10.393-.068-12.086-.068-2.486,0-7.173-.578-10.639-4.45-2.29-2.558-2.456-4.238-2.667-6.366-.209-2.105-.466-4.698-2.821-8.78l7.75-2.064c.012.005.022.01.034.015l5.891-1.593c3.566,3.819,7.732,9.202,8.494,10.193v.068h.053c.042.056.066.087.069.091l.12-.091h.955v-.04l.172.131c.047-.062,4.696-6.152,8.618-10.353l5.878,1.565ZM121.101,174.568v-10.013h-.082c.897-1.075,1.775-2.172,2.58-3.25v9.733h.011c-.719,1.185-1.555,2.361-2.509,3.529ZM124.796,168.854v-9.219c.662-.969,1.237-1.901,1.684-2.763.248,1.069.379,2.183.379,3.326,0,2.906-.69,5.8-2.062,8.655ZM162.912,181.98c.501-2.053.412-4.198-.327-5.858-.795-1.785-2.268-2.914-4.258-3.264-.522-.093-1.02-.139-1.489-.139-1.294,0-2.384.349-3.25,1.043-.907.727-1.386,1.691-1.639,2.478-.831-1.306-1.881-3.654-.555-5.832,2.076-3.408,6.693-3.496,9.226-2.253,2.099,1.031,3.557,2.865,4.105,5.164.632,2.643-.012,5.663-1.813,8.661ZM167.028,185.723c-.701-1.305-1.867-1.785-2.997-1.898,1.294-.499,3.246-.916,5.013.058,1.487.819,2.301,2.851,1.812,4.528-.538,1.848-2.439,2.916-5.302,3.024,1.235-1.317,2.685-3.455,1.474-5.712ZM185.776,176.409c-1.99-.27-3.774-1.586-5.303-3.91l-1,.656c.956,1.454,2.016,2.562,3.169,3.313,3.895,4.498,4.831,11.062,2.443,17.154-2.101,5.356-6.213,8.854-11.003,9.355-3.769.396-7.275-.32-9.982-1.986,3.158-.234,9.553-1.568,12.862-8.305,1.742-3.546,2.522-10.128-1.013-17.009-3.617-7.043-12.725-16.237-35.564-20.042l-.197,1.18c22.351,3.724,31.205,12.609,34.698,19.408,3.331,6.486,2.622,12.639,1.002,15.936-3.847,7.829-12.003,7.751-13.361,7.677-.184-.161-.362-.327-.535-.499-.275-.273-.531-.558-.768-.849,6.257.227,10.256-3.235,10.435-3.393l-.792-.897c-.043.037-4.241,3.654-10.51,3.03-.78-1.356-1.149-2.8-1.018-4.127.274-2.779,1.546-4.119,2.564-4.754,1.068-.666,2.259-.778,2.881-.545.68.254.742.579.763.687.172.888-1.177,2.457-1.857,3.078l.366,1.039c6.047.396,7.573-2.574,7.948-3.862.647-2.222-.399-4.818-2.384-5.912-2.017-1.109-4.155-.779-5.671-.258,1.955-3.263,2.643-6.589,1.939-9.533-.633-2.652-2.317-4.77-4.742-5.961-2.969-1.457-7.249-1.2-9.814,1.458-3.392-1.591-4.425-3.702-4.436-3.725l-1.085.505c.047.103,1.142,2.402,4.746,4.176-.063.095-.126.191-.186.29-.193.317-.348.636-.469.952-2.859-1.1-4.433-2.586-6.091-4.153-1.253-1.183-2.548-2.406-4.46-3.574-4.041-2.467-9.596-2.349-11.307-2.245.006-.188.009-.377.009-.565,0-.165-.003-.33-.008-.494,5.12-1.934,9.632-.573,10.898-.108l.412-1.123c-1.336-.491-6.03-1.906-11.397-.012-.056-.514-.137-1.021-.24-1.52,5.848-1.868,10.742-.438,10.792-.425l.347-1.145c-.216-.066-5.249-1.549-11.429.405-.171-.591-.375-1.167-.61-1.727l.238.439c4.992-2.71,11.235-1.216,11.299-1.199l.288-1.162c-.273-.067-6.711-1.619-12.11,1.284-.252-.533-.534-1.051-.842-1.551,6.137-4.583,11.451-2.895,15.348-1.657,1.377.438,2.565.815,3.598.864,2.993.155,4.774-1.568,5.466-3.217.771-1.836.36-3.866-1.047-5.171-2.097-1.943-4.357-1.34-5.771-.428-.068-1.188.186-2.104.76-2.732,1.086-1.189,3.023-1.025,3.045-1.025l.571-.898c-.78-1.331-.989-2.488-.618-3.438.334-.86,1.088-1.421,1.676-1.744.046,1.097.361,2.822,1.788,3.775.472.315.987.544,1.485.765,1.594.706,2.971,1.315,2.971,4.604h1.197c0-2.44-.735-3.741-1.678-4.549.538-3.082-.198-5.928-2.04-7.842-1.524-1.584-3.613-2.301-5.717-1.967-3.302.523-4.319,3.096-4.452,5.022-1.235-.824-1.947-1.763-2.119-2.8-.312-1.885,1.254-3.566,1.27-3.583l-.353-1.005c-1.802-.246-3.026-.9-3.643-1.944-.593-1.005-.521-2.201-.372-2.986.992.743,2.828,1.78,4.754,1.151.428-.14.816-.28,1.18-.411,1.738-.626,2.61-.938,4.12-.064l.802-.843c-.011-.017-1.093-1.716-.69-3.293.146-.575.482-1.075,1-1.494.318,1,1.092,2.551,2.9,3.147,3.684,1.213,5.042,3.491,4.275,7.166l1.172.244c.272-1.308.302-2.486.088-3.53.178-.583,1.008-2.76,3.56-3.098-.204.247-.379.534-.481.863-.196.626-.092,1.294.302,1.931.186.301.437.641.715,1.015,1.473,1.982,3.489,4.698.206,8.109l.862.83c.665-.69,1.147-1.362,1.482-2.011.377-.331,2.11-1.686,4.186-.661.837.413,1.356,1.022,1.59,1.863.058.206.096.42.116.642-.286-.397-.832-.847-1.836-.847-.692,0-1.343.3-1.832.844-.988,1.1-1.329,3.142-1.015,6.07.33,3.066-.446,7.927-3.721,11.533-2.982,3.286-7.442,4.951-13.259,4.951-.108,0-.218,0-.327-.002l-.012,1.197c3.077.026,5.865-.384,8.255-1.244,3.897.152,6.247.898,8.322,1.557,1.552.493,3.017.958,4.889,1.121,5.57.487,9.142-1.646,9.82-5.85.62-3.838-3.273-6.677-3.439-6.796l-.834.836c.503.698.769,1.523.769,2.389,0,2.256-1.835,4.091-4.091,4.091-2.295,0-4.092-1.797-4.092-4.091,0-2.169,1.688-5.61,6.216-5.611,4.654,0,7.074,3.706,7.704,5.666l1.05.174c.029-.038,2.802-3.687,7.195-3.318.307,2.237,1.019,12.255-10.223,14.965l-.352.922c1.105,1.604,4.001,4.149,7.455,3.036.111.87.07,2.426-1.376,3.37-2.817-1.426-7.206-1.593-7.425-1.6l-.041,1.195c.053.002,4.69.179,7.187,1.604l.002.065c.031.014.383.171.82.531.007.006.013.012.019.018l.002-.002c.503.419,1.114,1.104,1.478,2.143.689,1.969,1.716,4.02,4.044,4.859-1.058.639-2.826,1.436-4.771,1.17ZM165.042,251.467c-.894-.331-1.833-.227-2.584.29-.321.221-.586.503-.784.825-.652-1.807.764-3.187,1.105-3.486l.159-.709-.609-.378c-1.383.08-2.474.567-3.241,1.448-.715.819-1.006,1.831-1.117,2.645-1.394-1.771-1.479-4.339-.058-6.21,2.169-2.857,6.201-3.396,9.378-1.26,4.293,2.89,4.037,8.465,1.616,12.243-.428.668-.895,1.236-1.383,1.72.44-.971.594-2.051.427-3.188-.456-3.127-2.55-3.84-2.909-3.939ZM176.904,231.887c1.816,2.006,1.662,5.115-.344,6.932-.646.586-1.387,1.027-2.203,1.312-.613.214-1.27.333-1.95.354-2.112.057-4.036-.683-5.297-2.024.974.521,2.188.751,3.661.383,2.74-.686,3.939-3.236,3.676-5.289-.157-1.218-.766-2.142-1.659-2.614,1.392-.558,3.051-.228,4.116.948ZM174.237,224.705c-6.092,2.198-6.4,5.811-6.4,6.512,0,2.367,1.531,3.646,2.972,3.646,1.271,0,2.085-.695,2.383-1.512.037.144.058.268.068.354.203,1.579-.687,3.453-2.779,3.977-3.669.92-5.011-2.905-5.065-3.069l-1.161.263c.398,3.229-1.368,4.611-2.169,5.064-1.683-2.21-.966-3.802-.329-5.215l.098-.219c.584-1.316.412-2.156.166-2.629-.242-.463-.665-.773-1.19-.875-.579-.118-1.558.138-2.346.949-.584.603-1.48,1.988-.915,4.499.81,3.594-.107,5.191-.504,5.685-2.062-.677-3.364-4.88-3.703-6.515l-1.172.242c.055.264.28,1.292.718,2.51.268,1.141.738,4.017-.124,7.751-.752,3.25.07,7.05,2.094,9.68,1.565,2.035,3.731,3.197,6.1,3.272,2.997.109,5.088-1.049,5.833-3.108.148,2.169-1.169,3.991-3.669,5.043-.249.059-.489.105-.719.143-2.847.462-5.944-.332-8.087-2.069-2.397-1.944-4.136-6.567-4.153-6.613l-1.154.133-.693,5.504c-4.77-2.002-4.346-7.337-3.85-9.84.173-.443.296-.922.354-1.436l-1.164-.25c-.021.062-.173.547-.326,1.299-.822,2.02-2.966,3.224-3.878,3.658-4.197-6.339,1.99-14.001,2.055-14.08l-.896-.792c-3.878,4.091-8.401,4.639-10.546,4.639h-.014c2.135-2.366,2.543-4.142,2.909-5.729.37-1.61.663-2.883,2.784-4.528,1.422-1.103,3.18-1.815,5.041-2.569,3.094-1.255,6.599-2.676,9.245-6.276,3.215-4.375,5.747-4.835,6.669-4.835h.031c.285,2.323-1.173,4.739-1.261,4.882l.625.901c5.012-.994,9.746-1.934,10.854-9.408.39-2.631,1.562-4.701,3.139-5.539.7-.371,1.383-.433,1.922-.176.124.06.19.146.229.295.299,1.153-1.365,4.085-2.484,5.661l.571.939c2.247-.316,4.097-1.008,5.609-1.877-2.866,2.978-6.22,5.264-6.269,5.297l.67.991c.303-.205,7.438-5.068,9.945-10.145l-.007-.003c.759-1.017,1.248-1.945,1.532-2.57.361.571.399,1.525.291,2.519-2.777,5.875-10.56,11.311-12.887,12.842-.185.121-.24.158-.312.273l.536.332.324.466.108-.071c2.011-1.323,7.981-5.485,11.566-10.432l.637.67c.155-.047.306-.095.454-.144-3.09,4.987-7.389,8.088-7.437,8.121l.694.975c.219-.155,5.334-3.84,8.556-9.843.157-.079.31-.161.456-.244-.498,5.665-6.274,11.074-10.575,12.627ZM202.805,183.389h0s-.004,0-.004,0c-.364.778-.957,1.412-1.714,1.833-.954.531-2.062.656-3.11.358-1.051-.3-1.922-.991-2.453-1.946-.537-.966-.676-2.066-.39-3.098.29-1.043.992-1.919,1.978-2.467.704-.392,1.641-.664,2.657-.664,1.79,0,3.826.847,5.271,3.376.416.729.777,2.021.854,3.548-.67-.764-1.71-1.074-3.088-.94Z"
                fill="#c2c3c5" />
              <path
                d="M27.05,180.945l.487-.347.49-.344c-.645-.918-2.558-2.346-5.195-1.189l.481,1.096c2.382-1.048,3.682.709,3.737.784Z"
                fill="#c2c3c5" />
              <path
                d="M197.167,200.729l1.047-.578c-1.955-3.538-6.462-4.782-6.652-4.834l-.311,1.156c.041.011,4.21,1.17,5.916,4.256Z"
                fill="#c2c3c5" />
              <path
                d="M68.24,229.794c1.937.753,3.767,1.465,5.677,2.918,7.978,6.074,1.77,16.326,1.501,16.76l1.017.631c.067-.108,6.228-10.252-.35-17.064,3.287-.595,5.278,2.003,5.369,2.124l.961-.712c-.028-.04-2.852-3.775-7.386-2.384-.125-.104-.254-.205-.387-.307-.566-.431-1.129-.802-1.687-1.129,5.104-1.743,8.245.34,8.386.436l.339-.492.341-.491c-.17-.118-4.18-2.823-10.473-.197-.586-.281-1.167-.528-1.742-.761,2.854-1.84,6.174-1.808,6.203-1.809l.023-1.197c-.181-.003-4.251-.053-7.56,2.481-.588-.229-1.171-.458-1.753-.709,1.68-1.074,3.849-1.99,3.874-2.001l-.463-1.104c-.122.051-2.854,1.205-4.676,2.516-2.281-1.153-4.577-2.879-7.105-6.475l-.979.688c3.92,5.576,7.452,6.95,10.868,8.278Z"
                fill="#c2c3c5" />
              <path
                d="M26.36,200.15l1.048.578c1.705-3.086,5.873-4.245,5.915-4.256l-.311-1.156c-.191.052-4.697,1.296-6.651,4.834Z"
                fill="#c2c3c5" />
              <path
                d="M187.071,148.403l-1.188-.142c-.028.229-.737,5.616-5.947,7.398l.387,1.133c5.936-2.03,6.718-8.132,6.748-8.39Z"
                fill="#c2c3c5" />
              <path
                d="M155.979,149.786l.604,1.033c5.512-3.217,6.222-10.629,6.249-10.942l-1.191-.105c-.007.071-.679,7.106-5.661,10.015Z"
                fill="#c2c3c5" />
              <path
                d="M49.086,185.3l1.192-.102c-.545-6.421,4.165-11.416,4.212-11.466l-.863-.829c-.21.219-5.134,5.424-4.542,12.396Z"
                fill="#c2c3c5" />
              <path
                d="M159.496,142.152c2.615-6.902-2.519-13.803-2.739-14.093l-.954.722c.05.066,4.953,6.67,2.574,12.947-1.475,3.891-4.048,6.515-5.84,7.975,2.846-6.468-.817-10.26-.858-10.302l-.85.844c.16.163,3.869,4.079-.503,11.067l.792.844c.235-.128,5.799-3.201,8.378-10.004Z"
                fill="#c2c3c5" />
              <path
                d="M58.47,161.611l.726.951c3.08-2.351,9.446-4.126,9.51-4.144l-.318-1.154c-.27.075-6.653,1.854-9.917,4.347Z"
                fill="#c2c3c5" />
              <path
                d="M104.175,192.823c-1.313,0-2.381,1.068-2.381,2.381s1.068,2.382,2.381,2.382,2.381-1.068,2.381-2.382-1.068-2.381-2.381-2.381ZM104.175,196.389c-.653,0-1.185-.531-1.185-1.185s.532-1.184,1.185-1.184,1.185.531,1.185,1.184-.531,1.185-1.185,1.185Z"
                fill="#c2c3c5" />
              <path
                d="M97.704,183.474c-.05-1.312-1.15-2.339-2.467-2.291-1.312.048-2.34,1.154-2.292,2.467.047,1.283,1.105,2.294,2.379,2.294.029,0,.059,0,.088-.002,1.312-.048,2.341-1.155,2.292-2.468ZM94.141,183.606c-.024-.653.488-1.204,1.14-1.229.658-.002,1.203.488,1.228,1.14.024.653-.488,1.204-1.141,1.229-.652,0-1.203-.487-1.227-1.14Z"
                fill="#c2c3c5" />
              <path
                d="M97.706,188.721c-1.313,0-2.381,1.068-2.381,2.382s1.068,2.382,2.381,2.382,2.381-1.068,2.381-2.382-1.068-2.382-2.381-2.382ZM97.706,192.287c-.653,0-1.185-.531-1.185-1.185s.532-1.185,1.185-1.185,1.185.531,1.185,1.185-.532,1.185-1.185,1.185Z"
                fill="#c2c3c5" />
              <path
                d="M67.766,155.072c-.224.023-5.534.615-10.418,4.076l.691.977c4.62-3.273,9.801-3.857,9.853-3.863l-.125-1.189Z"
                fill="#c2c3c5" />
              <path
                d="M170.315,143.544c-1.032.363-2.817,1.857-2.189,4.909l1.172-.24c-.56-2.722,1.215-3.466,1.419-3.542l-.203-.562-.198-.564Z"
                fill="#c2c3c5" />
              <path
                d="M55.276,148.213l1.172.24c.627-3.052-1.158-4.546-2.189-4.909l-.402,1.127c.205.076,1.979.82,1.42,3.542Z"
                fill="#c2c3c5" />
              <path
                d="M174.295,185.198l1.191.102c.593-6.973-4.332-12.178-4.541-12.396l-.863.829c.048.05,4.758,5.045,4.213,11.466Z"
                fill="#c2c3c5" />
              <path
                d="M62.934,139.771l-1.192.105c.028.313.739,7.726,6.25,10.942l.604-1.033c-4.971-2.901-5.655-9.944-5.661-10.015Z"
                fill="#c2c3c5" />
              <path
                d="M155.867,158.419c.063.018,6.428,1.791,9.51,4.144l.727-.951c-3.265-2.492-9.647-4.271-9.918-4.347l-.318,1.154Z"
                fill="#c2c3c5" />
              <path
                d="M156.682,156.262c.052.006,5.231.59,9.853,3.863l.691-.977c-4.885-3.461-10.195-4.053-10.419-4.076l-.125,1.189Z"
                fill="#c2c3c5" />
              <path
                d="M38.69,148.262l-1.188.142c.03.258.813,6.359,6.748,8.39l.388-1.133c-5.21-1.782-5.92-7.17-5.947-7.398Z"
                fill="#c2c3c5" />
              <path
                d="M41.073,180.853c-1.635,7.123-.058,12.179.01,12.391l1.14-.365c-.016-.049-1.541-4.975.017-11.758l-1.166-.268Z"
                fill="#c2c3c5" />
              <path
                d="M73.744,140.245l-.425-.421-.424-.423c-.042.042-3.704,3.833-.858,10.302-1.792-1.461-4.365-4.084-5.839-7.975-2.379-6.277,2.523-12.881,2.572-12.947l-.954-.722c-.22.291-5.354,7.191-2.737,14.093,2.578,6.803,8.142,9.876,8.378,10.004l.792-.844c-4.373-6.988-.664-10.904-.504-11.067Z"
                fill="#c2c3c5" />
              <path
                d="M44.782,180.539l-1.179-.205c-1.639,9.396.99,13.952,1.103,14.142l1.029-.61c-.025-.043-2.507-4.414-.953-13.326Z"
                fill="#c2c3c5" />
              <path
                d="M182.352,192.879l1.14.364c.068-.212,1.645-5.268.011-12.391l-1.166.268c1.555,6.783.031,11.71.016,11.759Z"
                fill="#c2c3c5" />
            </g>
          </svg>